<svg width="4516" height="867" viewBox="0 0 4516 867" fill="none" xmlns="http://www.w3.org/2000/svg">
    <path d="M1336.37 657C1305.78 657 1277.57 651.812 1251.75 641.435C1226.32 630.659 1204.07 615.692 1185 596.535C1166.33 576.978 1151.82 554.029 1141.49 527.688C1131.16 500.948 1126 471.812 1126 440.283C1126 409.551 1131.36 381.214 1142.09 355.272C1152.82 328.931 1167.92 306.181 1187.38 287.024C1206.85 267.468 1229.7 252.301 1255.92 241.525C1282.14 230.749 1310.55 225.361 1341.14 225.361C1361 225.361 1380.47 228.155 1399.54 233.743C1419.01 238.931 1436.69 246.714 1452.58 257.091C1468.87 267.468 1482.78 279.84 1494.3 294.208L1438.28 356.469C1428.74 346.891 1418.81 338.709 1408.48 331.924C1398.55 324.74 1387.82 319.352 1376.3 315.76C1365.18 311.769 1353.26 309.773 1340.54 309.773C1323.46 309.773 1307.37 312.966 1292.27 319.352C1277.57 325.738 1264.66 334.718 1253.53 346.292C1242.41 357.467 1233.47 371.236 1226.72 387.6C1220.36 403.564 1217.18 421.325 1217.18 440.881C1217.18 460.837 1220.36 478.996 1226.72 495.36C1233.07 511.324 1242.01 525.094 1253.53 536.668C1265.06 547.843 1278.76 556.624 1294.65 563.009C1310.94 568.996 1328.82 571.989 1348.29 571.989C1361 571.989 1373.32 570.193 1385.24 566.601C1397.16 563.009 1408.08 558.02 1418.02 551.635C1428.35 545.249 1437.48 537.865 1445.43 529.484L1488.94 599.528C1479.4 610.304 1466.49 620.082 1450.2 628.863C1434.31 637.643 1416.43 644.628 1396.56 649.816C1376.7 654.605 1356.63 657 1336.37 657Z" fill="#292F36"/>
    <path d="M1698.98 657C1666.8 657 1638 650.016 1612.57 636.047C1587.54 621.679 1567.67 602.122 1552.97 577.377C1538.67 552.632 1531.52 524.296 1531.52 492.367C1531.52 460.438 1538.67 432.3 1552.97 407.955C1567.67 383.21 1587.54 363.653 1612.57 349.285C1638 334.917 1666.8 327.733 1698.98 327.733C1730.77 327.733 1759.17 334.917 1784.2 349.285C1809.63 363.653 1829.49 383.21 1843.8 407.955C1858.1 432.3 1865.25 460.438 1865.25 492.367C1865.25 524.296 1858.1 552.632 1843.8 577.377C1829.49 602.122 1809.63 621.679 1784.2 636.047C1759.17 650.016 1730.77 657 1698.98 657ZM1698.98 582.765C1714.48 582.765 1728.38 578.974 1740.7 571.391C1753.01 563.408 1762.55 552.632 1769.3 539.063C1776.45 525.094 1780.03 509.528 1780.03 492.367C1780.03 474.806 1776.45 459.24 1769.3 445.671C1762.55 431.702 1753.01 420.926 1740.7 413.343C1728.38 405.36 1714.48 401.369 1698.98 401.369C1683.09 401.369 1668.98 405.36 1656.67 413.343C1644.35 421.325 1634.62 432.101 1627.47 445.671C1620.32 459.24 1616.94 474.806 1617.34 492.367C1616.94 509.528 1620.32 525.094 1627.47 539.063C1634.62 552.632 1644.35 563.408 1656.67 571.391C1668.98 578.974 1683.09 582.765 1698.98 582.765Z" fill="#292F36"/>
    <path d="M1929.52 651.013V208H2014.14V651.013H1929.52Z" fill="#292F36"/>
    <path d="M2240.81 657C2208.63 657 2179.82 650.016 2154.4 636.047C2129.37 621.679 2109.5 602.122 2094.8 577.377C2080.5 552.632 2073.35 524.296 2073.35 492.367C2073.35 460.438 2080.5 432.3 2094.8 407.955C2109.5 383.21 2129.37 363.653 2154.4 349.285C2179.82 334.917 2208.63 327.733 2240.81 327.733C2272.59 327.733 2301 334.917 2326.03 349.285C2351.46 363.653 2371.32 383.21 2385.63 407.955C2399.93 432.3 2407.08 460.438 2407.08 492.367C2407.08 524.296 2399.93 552.632 2385.63 577.377C2371.32 602.122 2351.46 621.679 2326.03 636.047C2301 650.016 2272.59 657 2240.81 657ZM2240.81 582.765C2256.3 582.765 2270.21 578.974 2282.53 571.391C2294.84 563.408 2304.38 552.632 2311.13 539.063C2318.28 525.094 2321.86 509.528 2321.86 492.367C2321.86 474.806 2318.28 459.24 2311.13 445.671C2304.38 431.702 2294.84 420.926 2282.53 413.343C2270.21 405.36 2256.3 401.369 2240.81 401.369C2224.92 401.369 2210.81 405.36 2198.5 413.343C2186.18 421.325 2176.45 432.101 2169.3 445.671C2162.14 459.24 2158.77 474.806 2159.16 492.367C2158.77 509.528 2162.14 525.094 2169.3 539.063C2176.45 552.632 2186.18 563.408 2198.5 571.391C2210.81 578.974 2224.92 582.765 2240.81 582.765Z" fill="#292F36"/>
    <path d="M2576.83 657C2547.43 657 2521.21 652.211 2498.16 642.632C2475.52 632.654 2457.24 619.084 2443.34 601.923L2495.78 556.424C2508.1 569.595 2521.8 579.173 2536.9 585.16C2552 590.748 2567.1 593.541 2582.19 593.541C2588.15 593.541 2593.52 592.943 2598.28 591.745C2603.45 590.149 2607.82 588.153 2611.39 585.759C2614.97 582.965 2617.55 579.772 2619.14 576.18C2621.13 572.189 2622.12 567.998 2622.12 563.608C2622.12 554.828 2618.55 547.843 2611.39 542.655C2607.42 540.659 2601.26 538.264 2592.92 535.471C2584.58 532.278 2573.85 528.885 2560.74 525.293C2540.48 520.105 2523.19 514.118 2508.89 507.333C2494.98 500.149 2483.86 492.167 2475.52 483.387C2468.37 475.005 2462.8 466.025 2458.83 456.447C2455.25 446.469 2453.47 435.493 2453.47 423.52C2453.47 409.152 2456.65 396.181 2463 384.607C2469.36 372.633 2478.1 362.456 2489.22 354.075C2500.75 345.693 2513.86 339.308 2528.56 334.917C2543.26 330.128 2558.75 327.733 2575.04 327.733C2591.33 327.733 2607.22 329.729 2622.72 333.72C2638.21 337.711 2652.52 343.498 2665.63 351.081C2679.13 358.265 2690.85 366.846 2700.79 376.824L2655.49 427.112C2648.34 420.327 2640.2 414.141 2631.06 408.553C2622.32 402.966 2613.18 398.576 2603.65 395.383C2594.11 392.19 2585.57 390.593 2578.02 390.593C2571.27 390.593 2565.11 391.192 2559.55 392.389C2554.38 393.587 2550.01 395.383 2546.44 397.777C2542.86 400.172 2540.08 403.365 2538.09 407.356C2536.5 410.948 2535.71 414.939 2535.71 419.329C2535.71 423.72 2536.7 427.91 2538.69 431.901C2541.07 435.892 2544.25 439.285 2548.22 442.079C2552.59 444.473 2558.95 447.267 2567.29 450.46C2576.03 453.653 2587.75 457.245 2602.46 461.236C2621.53 466.424 2637.62 472.212 2650.73 478.597C2664.24 484.983 2674.96 492.367 2682.91 500.748C2689.66 507.932 2694.63 516.114 2697.81 525.293C2700.99 534.473 2702.58 544.65 2702.58 555.825C2702.58 575.382 2697.01 592.943 2685.89 608.508C2675.16 623.674 2660.26 635.648 2641.19 644.428C2622.12 652.809 2600.67 657 2576.83 657Z" fill="#292F36"/>
    <path d="M2868.99 657C2839.59 657 2813.36 652.211 2790.32 642.632C2767.67 632.654 2749.4 619.084 2735.49 601.923L2787.94 556.424C2800.25 569.595 2813.96 579.173 2829.06 585.16C2844.15 590.748 2859.25 593.541 2874.35 593.541C2880.31 593.541 2885.67 592.943 2890.44 591.745C2895.61 590.149 2899.98 588.153 2903.55 585.759C2907.13 582.965 2909.71 579.772 2911.3 576.18C2913.29 572.189 2914.28 567.998 2914.28 563.608C2914.28 554.828 2910.7 547.843 2903.55 542.655C2899.58 540.659 2893.42 538.264 2885.08 535.471C2876.73 532.278 2866.01 528.885 2852.9 525.293C2832.63 520.105 2815.35 514.118 2801.05 507.333C2787.14 500.149 2776.02 492.167 2767.67 483.387C2760.52 475.005 2754.96 466.025 2750.99 456.447C2747.41 446.469 2745.62 435.493 2745.62 423.52C2745.62 409.152 2748.8 396.181 2755.16 384.607C2761.52 372.633 2770.26 362.456 2781.38 354.075C2792.9 345.693 2806.01 339.308 2820.71 334.917C2835.41 330.128 2850.91 327.733 2867.2 327.733C2883.49 327.733 2899.38 329.729 2914.87 333.72C2930.37 337.711 2944.67 343.498 2957.78 351.081C2971.29 358.265 2983.01 366.846 2992.94 376.824L2947.65 427.112C2940.5 420.327 2932.36 414.141 2923.22 408.553C2914.48 402.966 2905.34 398.576 2895.8 395.383C2886.27 392.19 2877.73 390.593 2870.18 390.593C2863.42 390.593 2857.27 391.192 2851.7 392.389C2846.54 393.587 2842.17 395.383 2838.59 397.777C2835.02 400.172 2832.24 403.365 2830.25 407.356C2828.66 410.948 2827.86 414.939 2827.86 419.329C2827.86 423.72 2828.86 427.91 2830.84 431.901C2833.23 435.892 2836.41 439.285 2840.38 442.079C2844.75 444.473 2851.11 447.267 2859.45 450.46C2868.19 453.653 2879.91 457.245 2894.61 461.236C2913.68 466.424 2929.77 472.212 2942.88 478.597C2956.39 484.983 2967.12 492.367 2975.07 500.748C2981.82 507.932 2986.79 516.114 2989.96 525.293C2993.14 534.473 2994.73 544.65 2994.73 555.825C2994.73 575.382 2989.17 592.943 2978.05 608.508C2967.32 623.674 2952.42 635.648 2933.35 644.428C2914.28 652.809 2892.82 657 2868.99 657Z" fill="#292F36"/>
    <path d="M3173.06 657C3146.84 657 3123.2 649.816 3102.14 635.448C3081.09 621.08 3064.4 601.524 3052.08 576.779C3039.77 552.034 3033.61 523.697 3033.61 491.768C3033.61 459.839 3039.77 431.702 3052.08 407.356C3064.8 382.611 3081.88 363.254 3103.34 349.285C3124.79 334.917 3149.22 327.733 3176.64 327.733C3192.13 327.733 3206.24 330.128 3218.95 334.917C3232.06 339.308 3243.38 345.494 3252.92 353.476C3262.85 361.458 3271.2 370.638 3277.95 381.015C3284.7 391.392 3289.47 402.567 3292.25 414.54L3274.37 411.547V334.319H3358.4V651.013H3273.18V574.983L3292.25 573.187C3289.07 584.362 3283.91 594.938 3276.76 604.916C3269.61 614.894 3260.67 623.874 3249.94 631.856C3239.61 639.439 3227.89 645.625 3214.78 650.415C3201.67 654.805 3187.76 657 3173.06 657ZM3196.3 583.364C3212.2 583.364 3226.1 579.572 3238.02 571.989C3249.94 564.406 3259.08 553.83 3265.43 540.26C3272.19 526.291 3275.57 510.127 3275.57 491.768C3275.57 473.808 3272.19 458.043 3265.43 444.473C3259.08 430.904 3249.94 420.327 3238.02 412.744C3226.1 404.762 3212.2 400.771 3196.3 400.771C3180.81 400.771 3167.1 404.762 3155.18 412.744C3143.66 420.327 3134.52 430.904 3127.77 444.473C3121.02 458.043 3117.64 473.808 3117.64 491.768C3117.64 510.127 3121.02 526.291 3127.77 540.26C3134.52 553.83 3143.66 564.406 3155.18 571.989C3167.1 579.572 3180.81 583.364 3196.3 583.364Z" fill="#292F36"/>
    <path d="M3443.84 651.013V208H3528.47V651.013H3443.84Z" fill="#292F36"/>
    <path d="M3603.03 518.708V439.684H3797.9V518.708H3603.03Z" fill="#292F36"/>
    <path d="M3833.46 651.013L3996.75 231.947H4076.61L4239.31 651.013H4147.53L4063.5 425.316C4061.12 418.93 4058.14 410.748 4054.56 400.771C4051.38 390.793 4048 380.216 4044.43 369.041C4040.85 357.866 4037.48 347.29 4034.3 337.312C4031.12 326.935 4028.74 318.354 4027.15 311.569L4043.24 310.971C4040.85 320.15 4038.07 329.729 4034.89 339.707C4032.11 349.285 4029.13 359.263 4025.95 369.64C4022.78 379.618 4019.4 389.396 4015.82 398.975C4012.25 408.553 4008.87 417.932 4005.69 427.112L3921.66 651.013H3833.46ZM3909.15 563.009L3938.35 490.571H4129.65L4159.45 563.009H3909.15Z" fill="#292F36"/>
    <path d="M4287.15 651.013V573.785H4356.88V309.175H4287.15V231.947H4516V309.175H4446.27V573.785H4516V651.013H4287.15Z" fill="#292F36"/>
    <path d="M414.359 1.1771C412.476 1.31654 405.993 1.73484 400.067 2.15315C314.732 8.14887 230.583 41.3345 162.678 95.8538C144.551 110.355 121.753 132.177 107.182 148.909C46.1794 219.115 9.57762 304.728 1.6298 396.058C-6.80605 493.454 17.6649 590.222 71.3475 671.513C88.1495 696.96 104.185 716.481 126.425 738.791C144.621 757.057 155.706 766.678 174.53 780.9L182.199 786.617L182.408 697.657L182.547 608.628L177.458 600.819C166.861 584.645 155.776 563.451 148.874 545.952C122.59 479.371 120.568 405.749 143.157 337.844C158.146 292.737 181.502 254.531 214.896 220.439C265.651 168.779 328.745 138.172 401.6 129.946C414.638 128.482 449.218 128.273 461.418 129.597C472.364 130.782 486.168 132.874 494.534 134.617C502.133 136.151 518.517 140.334 521.585 141.519L523.467 142.286V281.582V420.878L527.511 421.715C534.692 423.109 583.006 433.009 584.819 433.427C586.004 433.706 575.895 436.076 555.189 440.329L523.816 446.673L523.607 558.71C523.537 620.34 523.746 670.746 524.025 670.746C525.349 670.746 548.147 658.894 556.025 654.084C590.396 633.168 620.793 602.911 641.778 568.819C644.497 564.357 647.704 558.849 648.889 556.479L651.051 552.296V306.192V60.0886L646.728 57.509C644.288 56.1147 637.665 52.4894 631.878 49.4915C581.751 23.4171 527.511 7.59113 470.482 2.50174C459.048 1.45597 422.097 0.619359 414.359 1.1771Z" fill="#20499E"/>
    <path d="M683.818 170.661V259.83L689.744 268.824C695.251 277.329 703.827 292.11 703.618 292.877C703.548 293.086 704.036 293.992 704.733 294.968C705.361 295.944 707.243 299.5 708.916 302.986C723.766 334.637 732.969 367.544 736.943 402.682C738.337 415.649 738.128 455.737 736.594 468.565C728.646 532.357 703.199 589.177 661.438 636.236C617.168 686.154 558.605 719.967 493.907 733.144C471.248 737.745 461.279 738.652 433.88 738.721C408.293 738.721 402.925 738.373 383.334 735.166C372.667 733.493 356.772 729.867 347.639 727.148L342.898 725.754V586.388C342.898 454.273 342.828 447.022 341.713 446.674C341.016 446.534 326.863 443.606 310.27 440.26C290.54 436.216 280.501 433.916 281.337 433.567C282.034 433.288 295.769 430.36 311.874 427.083C327.978 423.806 341.573 421.018 342.061 420.809C342.689 420.599 342.898 396.686 342.898 304.659V188.858L341.016 189.346C336.623 190.391 318.915 197.851 309.433 202.522C274.017 220.022 244.456 243.795 219.916 274.611L215.314 280.467V544.209V807.951L219.358 810.252C234.975 819.106 253.799 828.309 268.649 834.305C271.368 835.42 273.668 836.466 273.877 836.675C274.087 836.884 274.714 837.093 275.272 837.233C275.829 837.372 279.315 838.557 282.941 839.952C289.146 842.252 307.133 848.318 309.433 848.876C309.991 849.015 314.523 850.27 319.473 851.595C389.121 870.837 467.623 871.743 537.759 853.965C542.36 852.849 546.474 851.804 546.822 851.734C547.241 851.664 549.402 850.967 551.703 850.27C554.003 849.573 556.374 848.945 556.931 848.876C557.489 848.806 558.465 848.527 559.023 848.318C559.581 848.039 566.064 845.808 573.315 843.368C665.9 811.925 747.191 747.436 799.689 663.775C835.663 606.328 857.066 543.582 864.038 474.84C865.572 460.06 866.199 422.621 865.154 407.214C857.973 299.151 813.005 200.849 736.315 125.484C719.932 109.31 697.204 90.1374 685.77 82.7473L683.818 81.4924V170.661Z" fill="#DD2D26"/>
    <path d="M432.555 343.84C432.346 344.398 428.86 361.27 424.817 381.418C420.703 401.567 417.357 418.09 417.287 418.16C417.217 418.16 400.555 421.646 380.197 425.759C359.909 429.872 343.038 433.428 342.689 433.707C342.41 433.916 358.864 437.541 379.291 441.654C399.718 445.838 416.66 449.463 416.938 449.672C417.217 449.951 420.773 466.404 424.817 486.344C432.346 523.155 432.764 525.246 433.252 523.991C433.392 523.573 436.947 506.631 441.061 486.344L448.66 449.463L473.34 444.443C486.935 441.654 499.136 439.145 500.46 439.005C506.944 437.959 523.397 434.125 522.979 433.707C522.631 433.428 505.968 429.872 485.82 425.759C465.741 421.715 449.078 418.09 448.799 417.811C448.59 417.532 444.965 400.66 440.852 380.373C436.738 360.015 433.252 343.283 433.113 343.143C432.974 343.004 432.695 343.283 432.555 343.84Z" fill="#FFC107"/>
</svg>