<svg width="1328" height="1328" viewBox="0 0 1328 1328" fill="none" xmlns="http://www.w3.org/2000/svg">
    <path d="M635.498 0.272492C632.611 0.486343 622.667 1.1279 613.578 1.76945C482.702 10.965 353.643 61.8615 249.497 145.477C221.697 167.718 186.732 201.185 164.385 226.848C70.825 334.521 14.6891 465.826 2.49961 605.898C-10.4384 755.273 27.0925 903.686 109.425 1028.36C135.194 1067.39 159.787 1097.33 193.896 1131.54C221.804 1159.56 238.805 1174.31 267.675 1196.13L279.437 1204.89L279.757 1068.46L279.971 931.914L272.166 919.938C255.913 895.132 238.912 862.626 228.326 835.788C188.015 733.674 184.914 620.761 219.558 516.615C242.547 447.435 278.367 388.84 329.585 336.553C407.426 257.321 504.194 210.381 615.931 197.764C635.926 195.518 688.961 195.198 707.673 197.229C724.46 199.047 745.631 202.255 758.462 204.928C770.117 207.28 795.245 213.696 799.95 215.513L802.837 216.69V430.327V643.964L809.038 645.247C820.052 647.385 894.151 662.569 896.931 663.21C898.749 663.638 883.244 667.273 851.488 673.796L803.371 683.526L803.05 855.355C802.943 949.877 803.264 1027.18 803.692 1027.18C805.724 1027.18 840.688 1009.01 852.771 1001.63C905.485 969.552 952.104 923.146 984.289 870.859C988.459 864.016 993.378 855.569 995.195 851.934L998.51 845.518V468.071V90.6245L991.881 86.6683C988.138 84.5297 977.98 78.9696 969.106 74.3718C892.226 34.3817 809.038 10.1096 721.573 2.30408C704.037 0.700194 647.367 -0.582911 635.498 0.272492Z" fill="#20499E"/>
    <path d="M1048.76 260.209V396.967L1057.85 410.76C1066.3 423.805 1079.45 446.474 1079.13 447.65C1079.02 447.971 1079.77 449.361 1080.84 450.858C1081.8 452.354 1084.69 457.808 1087.26 463.154C1110.03 511.698 1124.15 562.167 1130.24 616.057C1132.38 635.945 1132.06 697.428 1129.71 717.102C1117.52 814.939 1078.49 902.083 1014.44 974.258C946.544 1050.82 856.727 1102.67 757.5 1122.88C722.749 1129.94 707.459 1131.33 665.437 1131.44C626.195 1131.44 617.962 1130.9 587.916 1125.98C571.556 1123.42 547.177 1117.86 533.17 1113.69L525.899 1111.55V897.806C525.899 695.182 525.792 684.062 524.082 683.527C523.012 683.313 501.306 678.823 475.858 673.69C445.598 667.488 430.201 663.96 431.484 663.425C432.553 662.998 453.618 658.507 478.317 653.481C503.017 648.456 523.868 644.179 524.616 643.858C525.579 643.537 525.899 606.862 525.899 465.72V288.117L523.012 288.865C516.276 290.469 489.117 301.91 474.575 309.074C420.257 335.913 374.921 372.374 337.283 419.635L330.226 428.617V833.116V1237.61L336.427 1241.14C360.379 1254.72 389.249 1268.84 412.024 1278.03C416.194 1279.74 419.722 1281.35 420.043 1281.67C420.364 1281.99 421.326 1282.31 422.182 1282.52C423.037 1282.74 428.383 1284.56 433.943 1286.69C443.46 1290.22 471.047 1299.52 474.575 1300.38C475.43 1300.59 482.381 1302.52 489.972 1304.55C596.791 1334.06 717.189 1335.45 824.756 1308.19C831.813 1306.47 838.122 1304.87 838.656 1304.76C839.298 1304.66 842.613 1303.59 846.141 1302.52C849.67 1301.45 853.305 1300.49 854.16 1300.38C855.016 1300.27 856.513 1299.85 857.368 1299.52C858.224 1299.1 868.168 1295.68 879.288 1291.93C1021.28 1243.71 1145.96 1144.8 1226.47 1016.49C1281.65 928.387 1314.47 832.154 1325.17 726.725C1327.52 704.057 1328.48 646.638 1326.88 623.007C1315.86 457.273 1246.9 306.508 1129.28 190.922C1104.15 166.115 1069.29 136.711 1051.76 125.376L1048.76 123.452V260.209Z" fill="#DD2D26"/>
    <path d="M663.406 525.809C663.085 526.664 657.739 552.54 651.537 583.442C645.228 614.343 640.096 639.684 639.989 639.791C639.882 639.791 614.327 645.138 583.105 651.446C551.989 657.755 526.113 663.208 525.579 663.636C525.151 663.956 550.386 669.517 581.715 675.825C613.044 682.241 639.027 687.801 639.454 688.122C639.882 688.549 645.335 713.784 651.537 744.364C663.085 800.821 663.727 804.029 664.475 802.104C664.689 801.463 670.142 775.48 676.451 744.364L688.106 687.801L725.957 680.102C746.808 675.825 765.52 671.976 767.551 671.762C777.495 670.158 802.73 664.277 802.088 663.636C801.553 663.208 775.998 657.755 745.097 651.446C714.302 645.245 688.747 639.684 688.319 639.257C687.999 638.829 682.438 612.953 676.13 581.838C669.821 550.616 664.475 524.953 664.261 524.74C664.047 524.526 663.62 524.953 663.406 525.809Z" fill="#FFC107"/>
</svg>